<svg width="1200" height="760" viewBox="0 0 1200 760" fill="none" xmlns="http://www.w3.org/2000/svg">
  <rect width="1200" height="760" rx="28" fill="#080A10"/>
  <rect x="34" y="34" width="1132" height="692" rx="24" fill="#111827" stroke="#293548" stroke-width="2"/>
  <text x="64" y="90" fill="#F8FAFC" font-family="Segoe UI, Arial, sans-serif" font-size="34" font-weight="700">Contoh Struktur Cloud Firestore</text>
  <text x="64" y="124" fill="#94A3B8" font-family="Segoe UI, Arial, sans-serif" font-size="18">Collection yang dipakai aplikasi mobile UKM Band saat mode Firebase aktif</text>

  <defs>
    <linearGradient id="orange" x1="0" y1="0" x2="1" y2="1">
      <stop offset="0" stop-color="#FB923C"/>
      <stop offset="1" stop-color="#EF4444"/>
    </linearGradient>
    <linearGradient id="green" x1="0" y1="0" x2="1" y2="1">
      <stop offset="0" stop-color="#22C55E"/>
      <stop offset="1" stop-color="#14B8A6"/>
    </linearGradient>
    <linearGradient id="blue" x1="0" y1="0" x2="1" y2="1">
      <stop offset="0" stop-color="#38BDF8"/>
      <stop offset="1" stop-color="#6366F1"/>
    </linearGradient>
  </defs>

  <rect x="70" y="170" width="325" height="220" rx="18" fill="#0B1220" stroke="#334155"/>
  <rect x="70" y="170" width="325" height="54" rx="18" fill="url(#orange)"/>
  <text x="94" y="206" fill="#111827" font-family="Segoe UI, Arial, sans-serif" font-size="24" font-weight="800">users/{uid}</text>
  <text x="94" y="258" fill="#E2E8F0" font-family="Consolas, monospace" font-size="17">uid</text>
  <text x="94" y="286" fill="#E2E8F0" font-family="Consolas, monospace" font-size="17">name, email, role</text>
  <text x="94" y="314" fill="#E2E8F0" font-family="Consolas, monospace" font-size="17">created_at, updated_at</text>

  <rect x="438" y="170" width="325" height="220" rx="18" fill="#0B1220" stroke="#334155"/>
  <rect x="438" y="170" width="325" height="54" rx="18" fill="url(#green)"/>
  <text x="462" y="206" fill="#052E16" font-family="Segoe UI, Arial, sans-serif" font-size="24" font-weight="800">songs/{songId}</text>
  <text x="462" y="258" fill="#E2E8F0" font-family="Consolas, monospace" font-size="17">title, artist</text>
  <text x="462" y="286" fill="#E2E8F0" font-family="Consolas, monospace" font-size="17">cover_path, file_path</text>
  <text x="462" y="314" fill="#E2E8F0" font-family="Consolas, monospace" font-size="17">plays, likes, comments_count</text>
  <text x="462" y="342" fill="#E2E8F0" font-family="Consolas, monospace" font-size="17">tanpa Firebase Storage</text>

  <rect x="806" y="170" width="325" height="220" rx="18" fill="#0B1220" stroke="#334155"/>
  <rect x="806" y="170" width="325" height="54" rx="18" fill="url(#blue)"/>
  <text x="830" y="206" fill="#0F172A" font-family="Segoe UI, Arial, sans-serif" font-size="24" font-weight="800">playlists/{playlistId}</text>
  <text x="830" y="258" fill="#E2E8F0" font-family="Consolas, monospace" font-size="17">user_uid, user_id</text>
  <text x="830" y="286" fill="#E2E8F0" font-family="Consolas, monospace" font-size="17">name</text>
  <text x="830" y="314" fill="#E2E8F0" font-family="Consolas, monospace" font-size="17">song_ids: [1, 2, 3]</text>
  <text x="830" y="342" fill="#E2E8F0" font-family="Consolas, monospace" font-size="17">created_at, updated_at</text>

  <rect x="70" y="450" width="325" height="190" rx="18" fill="#0B1220" stroke="#334155"/>
  <rect x="70" y="450" width="325" height="54" rx="18" fill="#FACC15"/>
  <text x="94" y="486" fill="#422006" font-family="Segoe UI, Arial, sans-serif" font-size="24" font-weight="800">histories/{uid_songId}</text>
  <text x="94" y="538" fill="#E2E8F0" font-family="Consolas, monospace" font-size="17">user_uid, user_id</text>
  <text x="94" y="566" fill="#E2E8F0" font-family="Consolas, monospace" font-size="17">song_id</text>
  <text x="94" y="594" fill="#E2E8F0" font-family="Consolas, monospace" font-size="17">played_at</text>

  <rect x="438" y="450" width="325" height="190" rx="18" fill="#0B1220" stroke="#334155"/>
  <rect x="438" y="450" width="325" height="54" rx="18" fill="#FB7185"/>
  <text x="462" y="486" fill="#4C0519" font-family="Segoe UI, Arial, sans-serif" font-size="24" font-weight="800">likes/{uid_songId}</text>
  <text x="462" y="538" fill="#E2E8F0" font-family="Consolas, monospace" font-size="17">user_uid, user_id</text>
  <text x="462" y="566" fill="#E2E8F0" font-family="Consolas, monospace" font-size="17">song_id</text>
  <text x="462" y="594" fill="#E2E8F0" font-family="Consolas, monospace" font-size="17">created_at</text>

  <rect x="806" y="450" width="325" height="190" rx="18" fill="#0B1220" stroke="#334155"/>
  <rect x="806" y="450" width="325" height="54" rx="18" fill="#A78BFA"/>
  <text x="830" y="486" fill="#2E1065" font-family="Segoe UI, Arial, sans-serif" font-size="24" font-weight="800">comments/{commentId}</text>
  <text x="830" y="538" fill="#E2E8F0" font-family="Consolas, monospace" font-size="17">song_id, parent_id</text>
  <text x="830" y="566" fill="#E2E8F0" font-family="Consolas, monospace" font-size="17">user_uid, user_name</text>
  <text x="830" y="594" fill="#E2E8F0" font-family="Consolas, monospace" font-size="17">content, created_at</text>
</svg>
